<?xml version="1.0" encoding="utf-8"?>
<!-- Generator: Adobe Illustrator 25.4.1, SVG Export Plug-In . SVG Version: 6.00 Build 0)  -->
<svg version="1.1" id="Layer_1" xmlns="http://www.w3.org/2000/svg" xmlns:xlink="http://www.w3.org/1999/xlink" x="0px" y="0px"
	 viewBox="0 0 2285.14 800" style="enable-background:new 0 0 2285.14 800;" xml:space="preserve">
<style type="text/css">
	.st0{fill:#FFFFFF;}
</style>
<g>
	<path class="st0" d="M125.68,399.35c0,73.44,55.42,129.76,127.06,129.76c68.94,0,103.63-44.61,103.63-93.72v-17.57H255.89v27.03
		h72.99c0.45,26.58-23.88,57.67-76.14,57.67c-57.67,0-97.77-42.8-97.77-103.18c0-58.12,43.25-101.83,102.73-101.83
		c38.75,0,69.39,9.46,97.77,29.29l1.8-1.35v-25.23c-21.18-14.87-57.22-29.29-100.47-29.29
		C183.35,270.94,125.68,327.71,125.68,399.35z M83.78,399.35c0,97.32,72.09,169.86,168.96,169.86
		c88.31,0,142.38-55.42,142.38-145.08v-45.96H255.89v26.13h113.99v24.33c0,70.29-43.7,113.99-117.15,113.99
		c-80.65,0-140.57-61.73-140.57-143.28c0-79.3,63.08-141.93,144.63-141.93c38.75,0,73.89,9.46,100.47,27.93v-26.58
		c-25.68-18.47-59.47-27.93-100.47-27.93C159.02,230.84,83.78,305.18,83.78,399.35z M452.34,422.33v139.22h26.58V422.78
		c0-31.09,20.28-53.17,50.46-53.17c9.01,0,17.12,2.25,25.68,5.86c3.6-8.56,7.21-15.77,11.71-22.53
		c-9.46-6.31-23.43-10.36-36.95-10.36C484.33,342.58,452.34,375.47,452.34,422.33z M413.14,561.55h26.58V422.33
		c0-54.97,36.95-92.36,90.56-92.36c18.02,0,36.5,5.86,44.61,10.81c4.96-5.86,10.36-12.17,17.57-18.02
		c-16.67-11.71-39.2-18.47-63.53-18.47c-70.74,0-115.79,47.76-115.79,118.5V561.55z M829.91,405.66v39.2
		c15.77-21.18,29.29-39.65,41.9-54.97c31.99-39.2,59.92-60.83,103.18-60.83c58.57,0,101.38,44.15,101.38,106.33
		c0,60.83-41.9,107.23-99.57,107.23c-46.86,0-87.41-31.99-96.87-75.69l-18.92,25.68c14.87,42.8,58.57,76.6,115.34,76.6
		c72.99,0,126.61-58.57,126.61-133.82c0-76.14-54.07-133.37-127.96-133.37C898.39,302.03,863.25,359.25,829.91,405.66z
		 M912.36,425.48h-0.9l-20.73,28.39c3.6,32.44,36.5,75.69,86.06,75.69c50.46,0,86.96-41,86.96-94.62s-37.4-93.27-88.76-93.27
		c-50.01,0-78.85,36.5-99.12,63.53c-9.91,13.07-27.03,34.24-45.96,60.83v43.25c17.57-26.13,41.45-56.77,59.02-77.95
		c29.74-35.59,47.76-62.63,85.61-62.63c36.95,0,62.18,28.39,62.18,66.23c0,39.2-23.88,68.03-59.92,68.03
		c-37.85,0-64.43-34.69-64.43-73.44V425.48z M885.77,207.41V319.6c8.11-6.31,17.12-13.97,26.58-17.57v-94.62H885.77z M846.13,360.6
		c8.11-10.36,17.12-21.63,26.58-31.09v-122.1h-26.58V360.6z M737.99,489.01l-0.45-0.45c-11.26,9.01-29.74,14.42-47.31,14.42
		c-36.04,0-63.08-27.03-63.08-67.13c0-38.3,26.58-67.58,62.18-67.58c38.3,0,61.73,27.93,61.73,65.33v127.96h26.58V432.24
		c0-52.26-36.5-90.56-87.86-90.56c-50.91,0-90.11,38.3-90.11,94.17c0,55.42,38.75,95.07,90.11,93.72
		c19.37-0.45,39.2-7.66,48.21-13.97V489.01z M559.57,435.39c0,78.4,55.42,133.82,130.21,133.82c16.67,0,36.04-4.96,48.21-14.42
		v-26.58c-8.11,6.76-27.93,14.42-48.21,14.42c-61.28,0-102.73-43.25-102.73-107.23c0-60.83,44.15-106.33,102.73-106.33
		c58.12,0,100.47,42.8,100.47,102.73v129.76h27.03V431.34c0-74.79-52.72-129.76-127.51-129.76
		C616.34,301.58,559.57,359.7,559.57,435.39z"/>
	<path class="st0" d="M1200.21,285.43v99.66h132.13v48.7h-132.13v127.62h-52.76V236.72h200.23v48.7H1200.21z M1625.94,436.5
		c0,78.92-51.41,131.68-126.72,131.68c-75.31,0-127.17-52.76-127.17-131.68c0-78.92,51.86-132.13,127.17-132.13
		C1574.53,304.37,1625.94,357.58,1625.94,436.5z M1499.22,353.52c-43.29,0-75.31,34.27-75.31,82.98s32.02,82.53,75.31,82.53
		c43.29,0,74.86-33.82,74.86-82.53S1542.51,353.52,1499.22,353.52z M1908.72,436.5c0,78.92-51.41,131.68-126.72,131.68
		c-75.31,0-127.17-52.76-127.17-131.68c0-78.92,51.86-132.13,127.17-132.13C1857.32,304.37,1908.72,357.58,1908.72,436.5z
		 M1782.01,353.52c-43.29,0-75.31,34.27-75.31,82.98s32.02,82.53,75.31,82.53s74.86-33.82,74.86-82.53S1825.3,353.52,1782.01,353.52
		z M2061.18,304.37c36.08,0,66.74,20.74,75.76,43.29h2.25V209.66h51.86v224.58c0,81.62-52.31,133.93-126.27,133.93
		c-73.96,0-127.17-50.96-127.17-132.13C1937.62,353.52,1990.83,304.37,2061.18,304.37z M2064.79,519.02
		c42.84,0,74.41-34.27,74.41-86.58c0-47.8-32.92-78.92-75.31-78.92c-42.39,0-74.41,30.67-74.41,80.72
		C1989.48,486.1,2021.95,519.02,2064.79,519.02z"/>
</g>
</svg>
